<svg width="3924" height="744" viewBox="0 0 3924 744" fill="none" xmlns="http://www.w3.org/2000/svg">
<path d="M0.811768 733.999V50.0547H93.4498V733.999H0.811768ZM442.32 733.999V50.0547H534.958V733.999H442.32ZM63.8844 422.578V337.824H464.987V422.578H63.8844Z" fill="#285943"/>
<path d="M858.26 743.854C811.612 743.854 769.564 733.342 732.114 712.318C694.665 690.636 665.1 661.4 643.419 624.607C621.737 587.815 610.897 546.095 610.897 499.447C610.897 453.457 621.409 412.065 642.433 375.273C664.114 338.481 693.023 309.572 729.158 288.548C765.95 266.867 807.013 256.026 852.347 256.026C895.709 256.026 933.816 265.881 966.666 285.592C1000.17 305.302 1026.13 332.568 1044.52 367.389C1063.57 402.21 1073.1 441.631 1073.1 485.65C1073.1 492.22 1072.77 499.447 1072.12 507.332C1071.46 514.559 1070.14 523.1 1068.17 532.955H672.984V459.042H1020.87L988.347 487.621C988.347 456.085 982.763 429.476 971.594 407.795C960.424 385.457 944.656 368.375 924.289 356.548C903.922 344.065 879.284 337.824 850.376 337.824C820.153 337.824 793.545 344.394 770.549 357.534C747.554 370.674 729.815 389.07 717.332 412.723C704.849 436.375 698.607 464.298 698.607 496.491C698.607 529.341 705.177 558.25 718.317 583.216C731.457 607.525 750.182 626.578 774.491 640.375C798.801 653.516 826.723 660.086 858.26 660.086C884.54 660.086 908.521 655.487 930.202 646.289C952.54 637.09 971.593 623.293 987.362 604.897L1044.52 663.042C1022.18 689.322 994.589 709.361 961.738 723.158C929.545 736.955 895.052 743.854 858.26 743.854Z" fill="#285943"/>
<path d="M1130.39 733.999V265.881H1219.09V733.999H1130.39ZM1219.09 466.926L1185.58 452.143C1185.58 392.355 1199.38 344.722 1226.97 309.244C1254.57 273.766 1294.31 256.026 1346.22 256.026C1369.87 256.026 1391.22 260.297 1410.28 268.838C1429.33 276.722 1447.07 290.191 1463.49 309.244L1405.35 369.36C1395.49 358.848 1384.65 351.292 1372.83 346.693C1361 342.094 1347.2 339.795 1331.44 339.795C1298.59 339.795 1271.65 350.307 1250.62 371.331C1229.6 392.355 1219.09 424.22 1219.09 466.926Z" fill="#285943"/>
<path d="M1488.45 733.999V265.881H1577.14V733.999H1488.45ZM1804.8 733.999V451.157C1804.8 416.336 1793.96 389.07 1772.27 369.36C1751.25 348.993 1724.64 338.809 1692.45 338.809C1670.77 338.809 1651.39 343.408 1634.3 352.606C1617.22 361.804 1603.42 374.616 1592.91 391.041C1582.4 407.466 1577.14 427.177 1577.14 450.172L1540.68 432.433C1540.68 396.954 1548.24 366.075 1563.35 339.795C1579.11 313.514 1600.47 293.147 1627.4 278.693C1654.34 263.582 1684.56 256.026 1718.07 256.026C1750.92 256.026 1780.49 263.253 1806.77 277.708C1833.7 292.162 1854.73 312.529 1869.84 338.809C1885.61 365.09 1893.49 396.297 1893.49 432.433V733.999H1804.8ZM2121.15 733.999V451.157C2121.15 416.336 2110.3 389.07 2088.62 369.36C2067.6 348.993 2041.32 338.809 2009.78 338.809C1988.1 338.809 1968.39 343.408 1950.65 352.606C1933.57 361.804 1919.77 374.616 1909.26 391.041C1898.75 407.466 1893.49 427.177 1893.49 450.172L1843.23 432.433C1845.2 396.297 1854.73 365.418 1871.81 339.795C1889.55 313.514 1912.22 293.147 1939.81 278.693C1967.41 263.582 1997.63 256.026 2030.48 256.026C2064.64 256.026 2095.19 263.253 2122.13 277.708C2149.07 292.162 2170.42 312.529 2186.19 338.809C2202.61 365.09 2210.83 396.626 2210.83 433.418V733.999H2121.15Z" fill="#285943"/>
<path d="M2505.96 743.854C2459.97 743.854 2418.57 733.013 2381.78 711.332C2344.99 689.651 2315.75 660.414 2294.07 623.622C2272.39 586.172 2261.55 544.452 2261.55 498.462C2261.55 453.128 2272.39 412.394 2294.07 376.259C2315.75 339.466 2344.99 310.229 2381.78 288.548C2418.57 266.867 2459.97 256.026 2505.96 256.026C2551.29 256.026 2592.35 266.867 2629.15 288.548C2666.59 309.572 2696.16 338.481 2717.84 375.273C2739.52 412.065 2750.36 453.128 2750.36 498.462C2750.36 544.452 2739.52 586.172 2717.84 623.622C2696.16 660.414 2666.59 689.651 2629.15 711.332C2592.35 733.013 2551.29 743.854 2505.96 743.854ZM2505.96 658.115C2535.52 658.115 2561.8 651.216 2584.8 637.419C2607.79 623.622 2625.86 604.897 2639 581.245C2652.14 556.936 2658.71 529.341 2658.71 498.462C2658.71 468.24 2651.81 441.302 2638.01 417.65C2624.87 393.998 2606.81 375.602 2583.81 362.461C2561.47 348.664 2535.52 341.766 2505.96 341.766C2476.39 341.766 2450.11 348.664 2427.12 362.461C2404.12 375.602 2386.05 393.998 2372.91 417.65C2359.77 441.302 2353.2 468.24 2353.2 498.462C2353.2 529.341 2359.77 556.936 2372.91 581.245C2386.05 604.897 2404.12 623.622 2427.12 637.419C2450.11 651.216 2476.39 658.115 2505.96 658.115Z" fill="#285943"/>
<path d="M2811.86 733.999V265.881H2900.56V733.999H2811.86Z" fill="#285943"/>
<path d="M3322.98 733.999V461.013C3322.98 425.534 3311.81 396.297 3289.48 373.302C3267.14 350.307 3238.23 338.809 3202.75 338.809C3179.1 338.809 3158.07 344.065 3139.68 354.577C3121.28 365.09 3106.83 379.544 3096.32 397.94C3085.8 416.336 3080.55 437.36 3080.55 461.013L3044.08 440.317C3044.08 404.838 3051.97 373.302 3067.74 345.708C3083.5 318.114 3105.51 296.432 3133.76 280.664C3162.02 264.239 3193.88 256.026 3229.36 256.026C3264.84 256.026 3296.05 264.896 3322.98 282.635C3350.58 300.374 3372.26 323.698 3388.03 352.606C3403.79 380.858 3411.68 411.08 3411.68 443.273V733.999H3322.98ZM2991.85 733.999V265.881H3080.55V733.999H2991.85Z" fill="#285943"/>
<path d="M3709.16 743.854C3662.51 743.854 3620.46 733.342 3583.01 712.318C3545.56 690.636 3516 661.4 3494.32 624.607C3472.63 587.815 3461.79 546.095 3461.79 499.447C3461.79 453.457 3472.31 412.065 3493.33 375.273C3515.01 338.481 3543.92 309.572 3580.05 288.548C3616.85 266.867 3657.91 256.026 3703.24 256.026C3746.61 256.026 3784.71 265.881 3817.56 285.592C3851.07 305.302 3877.02 332.568 3895.42 367.389C3914.47 402.21 3924 441.631 3924 485.65C3924 492.22 3923.67 499.447 3923.01 507.332C3922.36 514.559 3921.04 523.1 3919.07 532.955H3523.88V459.042H3871.77L3839.24 487.621C3839.24 456.085 3833.66 429.476 3822.49 407.795C3811.32 385.457 3795.55 368.375 3775.19 356.548C3754.82 344.065 3730.18 337.824 3701.27 337.824C3671.05 337.824 3644.44 344.394 3621.45 357.534C3598.45 370.674 3580.71 389.07 3568.23 412.723C3555.75 436.375 3549.5 464.298 3549.5 496.491C3549.5 529.341 3556.07 558.25 3569.21 583.216C3582.35 607.525 3601.08 626.578 3625.39 640.375C3649.7 653.516 3677.62 660.086 3709.16 660.086C3735.44 660.086 3759.42 655.487 3781.1 646.289C3803.44 637.09 3822.49 623.293 3838.26 604.897L3895.42 663.042C3873.08 689.322 3845.49 709.361 3812.64 723.158C3780.44 736.955 3745.95 743.854 3709.16 743.854Z" fill="#285943"/>
<path d="M2812 88C2838.88 60.4204 2856.5 0 2856.5 0C2856.5 0 2870.6 65.678 2899 94.5C2922.31 118.154 2979 135.5 2979 135.5C2979 135.5 2919.03 138.056 2894 158.5C2871.17 177.145 2856.5 235 2856.5 235C2856.5 235 2829.96 180.281 2803.5 163C2777.04 145.719 2721 135.5 2721 135.5C2721 135.5 2784.02 116.709 2812 88Z" fill="url(#paint0_radial_1192_851)"/>
<path d="M0.811768 733.999V50.0547H93.4498V733.999H0.811768ZM442.32 733.999V50.0547H534.958V733.999H442.32ZM63.8844 422.578V337.824H464.987V422.578H63.8844Z" stroke="black"/>
<path d="M858.26 743.854C811.612 743.854 769.564 733.342 732.114 712.318C694.665 690.636 665.1 661.4 643.419 624.607C621.737 587.815 610.897 546.095 610.897 499.447C610.897 453.457 621.409 412.065 642.433 375.273C664.114 338.481 693.023 309.572 729.158 288.548C765.95 266.867 807.013 256.026 852.347 256.026C895.709 256.026 933.816 265.881 966.666 285.592C1000.17 305.302 1026.13 332.568 1044.52 367.389C1063.57 402.21 1073.1 441.631 1073.1 485.65C1073.1 492.22 1072.77 499.447 1072.12 507.332C1071.46 514.559 1070.14 523.1 1068.17 532.955H672.984V459.042H1020.87L988.347 487.621C988.347 456.085 982.763 429.476 971.594 407.795C960.424 385.457 944.656 368.375 924.289 356.548C903.922 344.065 879.284 337.824 850.376 337.824C820.153 337.824 793.545 344.394 770.549 357.534C747.554 370.674 729.815 389.07 717.332 412.723C704.849 436.375 698.607 464.298 698.607 496.491C698.607 529.341 705.177 558.25 718.317 583.216C731.457 607.525 750.182 626.578 774.491 640.375C798.801 653.516 826.723 660.086 858.26 660.086C884.54 660.086 908.521 655.487 930.202 646.289C952.54 637.09 971.593 623.293 987.362 604.897L1044.52 663.042C1022.18 689.322 994.589 709.361 961.738 723.158C929.545 736.955 895.052 743.854 858.26 743.854Z" stroke="black"/>
<path d="M1130.39 733.999V265.881H1219.09V733.999H1130.39ZM1219.09 466.926L1185.58 452.143C1185.58 392.355 1199.38 344.722 1226.97 309.244C1254.57 273.766 1294.31 256.026 1346.22 256.026C1369.87 256.026 1391.22 260.297 1410.28 268.838C1429.33 276.722 1447.07 290.191 1463.49 309.244L1405.35 369.36C1395.49 358.848 1384.65 351.292 1372.83 346.693C1361 342.094 1347.2 339.795 1331.44 339.795C1298.59 339.795 1271.65 350.307 1250.62 371.331C1229.6 392.355 1219.09 424.22 1219.09 466.926Z" stroke="black"/>
<path d="M1488.45 733.999V265.881H1577.14V733.999H1488.45ZM1804.8 733.999V451.157C1804.8 416.336 1793.96 389.07 1772.27 369.36C1751.25 348.993 1724.64 338.809 1692.45 338.809C1670.77 338.809 1651.39 343.408 1634.3 352.606C1617.22 361.804 1603.42 374.616 1592.91 391.041C1582.4 407.466 1577.14 427.177 1577.14 450.172L1540.68 432.433C1540.68 396.954 1548.24 366.075 1563.35 339.795C1579.11 313.514 1600.47 293.147 1627.4 278.693C1654.34 263.582 1684.56 256.026 1718.07 256.026C1750.92 256.026 1780.49 263.253 1806.77 277.708C1833.7 292.162 1854.73 312.529 1869.84 338.809C1885.61 365.09 1893.49 396.297 1893.49 432.433V733.999H1804.8ZM2121.15 733.999V451.157C2121.15 416.336 2110.3 389.07 2088.62 369.36C2067.6 348.993 2041.32 338.809 2009.78 338.809C1988.1 338.809 1968.39 343.408 1950.65 352.606C1933.57 361.804 1919.77 374.616 1909.26 391.041C1898.75 407.466 1893.49 427.177 1893.49 450.172L1843.23 432.433C1845.2 396.297 1854.73 365.418 1871.81 339.795C1889.55 313.514 1912.22 293.147 1939.81 278.693C1967.41 263.582 1997.63 256.026 2030.48 256.026C2064.64 256.026 2095.19 263.253 2122.13 277.708C2149.07 292.162 2170.42 312.529 2186.19 338.809C2202.61 365.09 2210.83 396.626 2210.83 433.418V733.999H2121.15Z" stroke="black"/>
<path d="M2505.96 743.854C2459.97 743.854 2418.57 733.013 2381.78 711.332C2344.99 689.651 2315.75 660.414 2294.07 623.622C2272.39 586.172 2261.55 544.452 2261.55 498.462C2261.55 453.128 2272.39 412.394 2294.07 376.259C2315.75 339.466 2344.99 310.229 2381.78 288.548C2418.57 266.867 2459.97 256.026 2505.96 256.026C2551.29 256.026 2592.35 266.867 2629.15 288.548C2666.59 309.572 2696.16 338.481 2717.84 375.273C2739.52 412.065 2750.36 453.128 2750.36 498.462C2750.36 544.452 2739.52 586.172 2717.84 623.622C2696.16 660.414 2666.59 689.651 2629.15 711.332C2592.35 733.013 2551.29 743.854 2505.96 743.854ZM2505.96 658.115C2535.52 658.115 2561.8 651.216 2584.8 637.419C2607.79 623.622 2625.86 604.897 2639 581.245C2652.14 556.936 2658.71 529.341 2658.71 498.462C2658.71 468.24 2651.81 441.302 2638.01 417.65C2624.87 393.998 2606.81 375.602 2583.81 362.461C2561.47 348.664 2535.52 341.766 2505.96 341.766C2476.39 341.766 2450.11 348.664 2427.12 362.461C2404.12 375.602 2386.05 393.998 2372.91 417.65C2359.77 441.302 2353.2 468.24 2353.2 498.462C2353.2 529.341 2359.77 556.936 2372.91 581.245C2386.05 604.897 2404.12 623.622 2427.12 637.419C2450.11 651.216 2476.39 658.115 2505.96 658.115Z" stroke="black"/>
<path d="M2811.86 733.999V265.881H2900.56V733.999H2811.86Z" stroke="black"/>
<path d="M3322.98 733.999V461.013C3322.98 425.534 3311.81 396.297 3289.48 373.302C3267.14 350.307 3238.23 338.809 3202.75 338.809C3179.1 338.809 3158.07 344.065 3139.68 354.577C3121.28 365.09 3106.83 379.544 3096.32 397.94C3085.8 416.336 3080.55 437.36 3080.55 461.013L3044.08 440.317C3044.08 404.838 3051.97 373.302 3067.74 345.708C3083.5 318.114 3105.51 296.432 3133.76 280.664C3162.02 264.239 3193.88 256.026 3229.36 256.026C3264.84 256.026 3296.05 264.896 3322.98 282.635C3350.58 300.374 3372.26 323.698 3388.03 352.606C3403.79 380.858 3411.68 411.08 3411.68 443.273V733.999H3322.98ZM2991.85 733.999V265.881H3080.55V733.999H2991.85Z" stroke="black"/>
<path d="M3709.16 743.854C3662.51 743.854 3620.46 733.342 3583.01 712.318C3545.56 690.636 3516 661.4 3494.32 624.607C3472.63 587.815 3461.79 546.095 3461.79 499.447C3461.79 453.457 3472.31 412.065 3493.33 375.273C3515.01 338.481 3543.92 309.572 3580.05 288.548C3616.85 266.867 3657.91 256.026 3703.24 256.026C3746.61 256.026 3784.71 265.881 3817.56 285.592C3851.07 305.302 3877.02 332.568 3895.42 367.389C3914.47 402.21 3924 441.631 3924 485.65C3924 492.22 3923.67 499.447 3923.01 507.332C3922.36 514.559 3921.04 523.1 3919.07 532.955H3523.88V459.042H3871.77L3839.24 487.621C3839.24 456.085 3833.66 429.476 3822.49 407.795C3811.32 385.457 3795.55 368.375 3775.19 356.548C3754.82 344.065 3730.18 337.824 3701.27 337.824C3671.05 337.824 3644.44 344.394 3621.45 357.534C3598.45 370.674 3580.71 389.07 3568.23 412.723C3555.75 436.375 3549.5 464.298 3549.5 496.491C3549.5 529.341 3556.07 558.25 3569.21 583.216C3582.35 607.525 3601.08 626.578 3625.39 640.375C3649.7 653.516 3677.62 660.086 3709.16 660.086C3735.44 660.086 3759.42 655.487 3781.1 646.289C3803.44 637.09 3822.49 623.293 3838.26 604.897L3895.42 663.042C3873.08 689.322 3845.49 709.361 3812.64 723.158C3780.44 736.955 3745.95 743.854 3709.16 743.854Z" stroke="black"/>
<path d="M2812 88C2838.88 60.4204 2856.5 0 2856.5 0C2856.5 0 2870.6 65.678 2899 94.5C2922.31 118.154 2979 135.5 2979 135.5C2979 135.5 2919.03 138.056 2894 158.5C2871.17 177.145 2856.5 235 2856.5 235C2856.5 235 2829.96 180.281 2803.5 163C2777.04 145.719 2721 135.5 2721 135.5C2721 135.5 2784.02 116.709 2812 88Z" stroke="black"/>
<defs>
<radialGradient id="paint0_radial_1192_851" cx="0" cy="0" r="1" gradientUnits="userSpaceOnUse" gradientTransform="translate(1962.4 371.927) scale(1961.59 371.927)">
<stop offset="0.677885" stop-color="#FFAE00"/>
<stop offset="0.894231" stop-color="#285943"/>
</radialGradient>
</defs>
</svg>
